<?xml version="1.0" encoding="utf-8"?>
<!-- Generator: Adobe Illustrator 22.1.0, SVG Export Plug-In . SVG Version: 6.00 Build 0)  -->
<svg version="1.1" baseProfile="tiny" id="Layer_1" xmlns="http://www.w3.org/2000/svg" xmlns:xlink="http://www.w3.org/1999/xlink"
	 x="0px" y="0px" width="157px" height="28px" viewBox="0 0 157 28" xml:space="preserve">
<g>
	<polygon fill="#675DA9" points="86.5,22.2 40.8,22.2 44.5,25.8 	"/>
	<path fill="#675DA9" d="M45.1,7.4V8c-0.8-0.5-1.6-0.9-2.7-0.9c-3.2,0-5.6,2.9-5.6,6.5c0,3.6,2.4,6.5,5.6,6.5c1,0,1.8-0.3,2.7-0.9
		v0.6h2.8V7.4H45.1z M42.4,17.2c-1.6,0-2.7-1.6-2.7-3.5c0-2,1.2-3.5,2.7-3.5c1.6,0,2.7,1.6,2.7,3.5C45.1,15.6,44,17.2,42.4,17.2"/>
	<path fill="#675DA9" d="M67.6,7.4v7.3c0,1.4-0.9,2.5-2.3,2.5c-1.4,0-2.3-1.2-2.3-2.5V7.4h-2.8v7.3c0,3,2,5.4,5,5.4
		c1.4,0,2.4-0.8,2.4-0.8v0.5h2.8V7.4H67.6z"/>
	<path fill="#675DA9" d="M93.8,19.8v-7.3c0-1.4,0.9-2.5,2.3-2.5c1.4,0,2.3,1.2,2.3,2.5v7.3h2.8v-7.3c0-3-2-5.4-5-5.4
		c-1.4,0-2.4,0.8-2.4,0.8V7.4H91v12.4H93.8z"/>
	<path fill="#675DA9" d="M28.7,19.8V15h2.1l3.6,4.8H38L33.7,14c1.4-1,2.2-2.6,2.2-4.4c0-2.9-2.4-5.3-5.3-5.3h-4.9v15.5H28.7z
		 M28.7,7.3h1.9c1.3,0,2.4,1.1,2.4,2.4c0,1.3-1.1,2.4-2.4,2.4h-1.9V7.3z"/>
	<path fill="#675DA9" d="M78,16.9c-0.3,0.2-0.6,0.3-0.9,0.3c-0.5,0-1.3-0.4-1.3-1.5v-5.3h2.4V7.4h-2.4V4.4h-2.8l0,3.1h-1.5v2.9h1.5
		v5.4c0,2.8,2.1,4.4,4.2,4.4c0.8,0,1.9-0.3,2.8-0.8L78,16.9z"/>
	<polygon fill="#675DA9" points="54.9,13.3 59.7,7.4 55.8,7.4 52.4,11.8 52.4,3.3 49.5,3.3 49.5,19.8 52.4,19.8 52.4,14.8 
		56.5,19.8 60.5,19.8 	"/>
	<path fill="#675DA9" d="M84.5,7.1c-3.3,0-5.6,2.9-5.6,6.5c0,3.8,2.9,6.5,5.9,6.5c1.5,0,3.4-0.5,5-2.8l-2.5-1.4
		c-1.9,2.8-5.1,1.4-5.5-1.4l8.1,0C90.6,10.1,87.7,7.1,84.5,7.1 M87,12h-5.1C82.5,9.1,86.4,9,87,12"/>
	<path fill="#675DA9" d="M109.9,18.7l-4.8-11.9c-0.1-0.1-0.1-0.3-0.2-0.5c0-0.2-0.1-0.4-0.1-0.5c0-0.5,0.2-0.9,0.5-1.3
		c0.4-0.3,0.8-0.5,1.3-0.5c0.4,0,0.7,0.1,1,0.3c0.2,0.2,0.5,0.6,0.7,1.2l3.2,8.7l3.1-8.6c0.2-0.6,0.4-1,0.7-1.3
		c0.3-0.2,0.6-0.4,1.1-0.4c0.5,0,1,0.1,1.3,0.4c0.3,0.3,0.5,0.7,0.5,1.2c0,0.2,0,0.4-0.1,0.6c0,0.2-0.1,0.4-0.2,0.6l-4.6,11.7
		c-0.2,0.5-0.5,0.9-0.7,1.1c-0.3,0.2-0.6,0.3-1.1,0.3c-0.4,0-0.7-0.1-1-0.3C110.3,19.5,110.1,19.2,109.9,18.7"/>
	<path fill="#675DA9" d="M122.4,17.7c0,0.8-0.1,1.4-0.4,1.8c-0.3,0.4-0.7,0.6-1.2,0.6c-0.6,0-1-0.2-1.2-0.6c-0.3-0.4-0.4-1-0.4-1.8
		v-6.6c0-0.8,0.1-1.4,0.4-1.8c0.3-0.4,0.7-0.6,1.2-0.6c0.5,0,1,0.2,1.2,0.6c0.3,0.4,0.4,1,0.4,1.8V17.7z"/>
	<path fill="#675DA9" d="M127.4,8.9c0.4-0.3,0.8-0.6,1.3-0.7c0.5-0.2,0.9-0.2,1.5-0.2c1.5,0,2.8,0.6,3.8,1.8c1,1.2,1.5,2.7,1.5,4.4
		c0,1.7-0.5,3.1-1.6,4.3c-1.1,1.2-2.3,1.8-3.8,1.8c-0.6,0-1.1-0.1-1.6-0.3c-0.5-0.2-0.9-0.5-1.2-0.9c-0.2,0.4-0.5,0.7-0.7,0.8
		c-0.3,0.2-0.6,0.3-0.9,0.3c-0.6,0-1-0.2-1.3-0.6c-0.3-0.4-0.4-1-0.4-1.9v-11c0-0.9,0.1-1.5,0.4-1.9c0.3-0.4,0.7-0.6,1.3-0.6
		c0.6,0,1,0.2,1.3,0.6c0.3,0.4,0.4,1.1,0.4,1.9V8.9z M127.1,14c0,1,0.2,1.7,0.7,2.3c0.5,0.6,1.1,0.9,1.8,0.9c0.7,0,1.3-0.3,1.8-0.9
		c0.5-0.6,0.7-1.3,0.7-2.3c0-1-0.2-1.7-0.7-2.3c-0.5-0.6-1.1-0.9-1.8-0.9c-0.7,0-1.3,0.3-1.8,0.9C127.3,12.3,127.1,13.1,127.1,14"/>
	<path fill="#675DA9" d="M139.3,15c0.1,0.6,0.5,1.2,1,1.5c0.5,0.4,1.1,0.5,1.8,0.5c0.7,0,1.4-0.2,2.2-0.6c0.8-0.4,1.3-0.6,1.5-0.6
		c0.4,0,0.7,0.1,1,0.4c0.3,0.3,0.4,0.6,0.4,1c0,0.7-0.5,1.4-1.6,2c-1,0.6-2.3,0.9-3.7,0.9c-1.7,0-3.1-0.6-4.3-1.7
		c-1.1-1.2-1.7-2.6-1.7-4.4c0-1.8,0.6-3.2,1.7-4.4c1.1-1.2,2.5-1.8,4.2-1.8c1.6,0,2.9,0.6,4,1.7c1.1,1.1,1.6,2.5,1.6,4.1
		c0,0.5-0.1,0.9-0.4,1.1c-0.2,0.2-0.7,0.3-1.4,0.3H139.3z M139.2,12.9h5.1c0-0.6-0.3-1.3-0.8-1.7c-0.5-0.4-1-0.6-1.7-0.6
		c-0.6,0-1.3,0.2-1.7,0.6C139.6,11.6,139.3,12.3,139.2,12.9"/>
	<path fill="#675DA9" d="M148.4,17.5v-7c0-0.9,0.1-1.5,0.4-1.9c0.3-0.4,0.7-0.6,1.3-0.6c0.4,0,0.7,0.1,0.9,0.3
		c0.3,0.2,0.5,0.5,0.7,0.8c0.4-0.4,0.7-0.7,1.1-0.9c0.4-0.2,0.8-0.3,1.2-0.3c0.5,0,0.9,0.2,1.2,0.5c0.3,0.3,0.5,0.7,0.5,1.2
		c0,0.7-0.6,1.3-1.9,1.7c-0.5,0.2-0.8,0.3-1,0.4c-0.4,0.2-0.7,0.4-0.9,0.7c-0.1,0.3-0.2,0.7-0.2,1.4v3.6c0,0.9-0.1,1.5-0.4,1.9
		c-0.3,0.4-0.7,0.6-1.3,0.6c-0.6,0-1-0.2-1.3-0.6C148.6,19,148.4,18.4,148.4,17.5"/>
	<path fill="#675DA9" d="M119.1,5.9c0-0.5,0.2-0.9,0.5-1.3c0.4-0.4,0.8-0.5,1.3-0.5c0.5,0,0.9,0.2,1.3,0.5c0.4,0.4,0.5,0.8,0.5,1.3
		c0,0.5-0.2,0.9-0.5,1.3c-0.3,0.3-0.8,0.5-1.3,0.5c-0.5,0-0.9-0.2-1.3-0.5C119.3,6.8,119.1,6.4,119.1,5.9"/>
</g>
<g>
	<g>
		<path fill="#675DA9" d="M19.4,4.9c-0.5-0.5-2.7-2.1-7.6-2.1c0,0-5.8-0.3-8.6,2.2C1.6,6.5,1.1,8.8,1,11.7c-0.1,2.8-0.1,8.2,5,9.6
			c0,0,0,0,0,0l0,2.2c0,0,0,0.9,0.6,1.1c0.7,0.2,1.1-0.5,1.8-1.2c0.4-0.4,0.9-1,1.3-1.4c3.5,0.3,6.2-0.4,6.5-0.5
			c0.7-0.2,4.7-0.7,5.4-6.1C22.2,9.9,21.2,6.4,19.4,4.9z M20,15c-0.6,4.4-3.8,4.7-4.4,4.9C15.3,20,13,20.6,10,20.4
			c0,0-2.2,2.7-2.9,3.4c-0.1,0.1-0.2,0.2-0.3,0.1c-0.1,0-0.2-0.2-0.2-0.4c0-0.3,0-3.7,0-3.7c0,0,0,0,0,0c-4.3-1.2-4.1-5.7-4-8.1
			c0-2.4,0.5-4.3,1.8-5.6c2.4-2.2,7.3-1.8,7.3-1.8c4.1,0,6.1,1.3,6.6,1.7C19.8,7.3,20.6,10.4,20,15z"/>
	</g>
	<g>
		<path fill="#675DA9" d="M13.8,11.8c-0.1,0-0.3-0.1-0.3-0.3c0-0.9-0.5-1.4-1.4-1.4c-0.2,0-0.3-0.1-0.3-0.3c0-0.2,0.1-0.3,0.3-0.3
			c1.2,0.1,1.9,0.7,1.9,2C14.1,11.7,14,11.8,13.8,11.8C13.8,11.8,13.8,11.8,13.8,11.8z"/>
	</g>
	<g>
		<path fill="#675DA9" d="M15.2,12.3C15.2,12.3,15.2,12.3,15.2,12.3c-0.2,0-0.3-0.1-0.3-0.3c0-0.9-0.2-1.7-0.8-2.3
			c-0.6-0.6-1.4-1-2.4-1c-0.2,0-0.3-0.1-0.3-0.3c0-0.2,0.1-0.3,0.3-0.3c1.2,0.1,2.1,0.5,2.8,1.2c0.7,0.7,1,1.6,1,2.7
			C15.5,12.2,15.4,12.3,15.2,12.3z"/>
	</g>
	<g>
		<path fill="#675DA9" d="M16.7,12.9c-0.2,0-0.3-0.1-0.3-0.3c0-1.7-0.5-3-1.5-3.9c-1-1-2.2-1.4-3.7-1.5c-0.2,0-0.3-0.1-0.3-0.3
			c0-0.2,0.1-0.3,0.3-0.3c0,0,0,0,0,0c1.6,0,3,0.6,4.1,1.6c1.1,1.1,1.6,2.5,1.7,4.3C16.9,12.7,16.8,12.9,16.7,12.9
			C16.7,12.9,16.7,12.9,16.7,12.9z"/>
	</g>
	<g>
		<path fill="#675DA9" d="M12.2,15.3c0,0,0.4,0,0.6-0.2l0.4-0.5c0.2-0.3,0.7-0.4,1.1-0.2c0.3,0.1,0.7,0.4,1,0.6
			c0.3,0.2,0.9,0.8,0.9,0.8c0.3,0.3,0.4,0.6,0.2,1c0,0,0,0,0,0c-0.2,0.4-0.5,0.7-0.8,1c0,0,0,0,0,0c-0.3,0.2-0.6,0.4-0.9,0.4
			c0,0-0.1,0-0.1,0c-0.1,0-0.2,0-0.4-0.1l0,0c-0.4-0.1-1.2-0.4-2.4-1.1c-0.8-0.4-1.4-0.9-2-1.3C9.6,15.6,9.3,15.3,9,15c0,0,0,0,0,0
			c0,0,0,0,0,0l0,0c0,0,0,0,0,0c0,0,0,0,0,0c0,0,0,0,0,0c-0.3-0.3-0.6-0.6-0.8-0.9c-0.4-0.6-0.9-1.2-1.3-2c-0.7-1.2-1-1.9-1.1-2.4
			l0,0c0-0.1-0.1-0.2-0.1-0.4c0-0.1,0-0.1,0-0.1c0-0.3,0.2-0.6,0.4-0.9c0,0,0,0,0,0c0.3-0.4,0.7-0.6,1-0.8c0,0,0,0,0,0
			c0.4-0.2,0.8-0.1,1,0.2c0,0,0.5,0.6,0.8,0.9c0.2,0.3,0.5,0.8,0.6,1c0.3,0.5,0.1,0.9-0.2,1.1l-0.5,0.4c-0.3,0.2-0.2,0.6-0.2,0.6
			S9.3,14.5,12.2,15.3z"/>
	</g>
</g>
</svg>
